<svg width="19" height="31" viewBox="0 0 19 31" fill="none" xmlns="http://www.w3.org/2000/svg">
<rect y="2.3833" width="18.0358" height="27.9264" fill="#E9ECF8"/>
<path fill-rule="evenodd" clip-rule="evenodd" d="M13.6117 14.1753C13.5864 14.3317 13.5248 14.4805 13.4316 14.6107C13.3383 14.7408 13.2158 14.8488 13.0732 14.9267C12.786 15.1059 12.5347 15.1955 12.2804 15.2851C11.739 15.4657 11.1691 15.6463 10.5663 15.8558C9.93054 16.0654 9.36065 16.2749 8.85208 16.4266C8.21787 16.6361 7.61506 16.8168 7.04218 17.0263C6.61116 17.2045 6.20631 17.4367 5.83807 17.717C5.49558 18.0167 5.1967 18.3599 4.94957 18.7371C4.69528 19.1562 4.53523 19.6966 4.53523 20.3266C4.53523 21.5881 4.85234 22.5476 5.48805 23.1472C6.12226 23.7787 7.29796 24.0778 9.04055 24.0778C10.8175 24.0778 12.0232 23.7484 12.6604 23.088C13.2931 22.4276 13.6102 21.4985 13.6102 20.2992V14.1753H13.6117ZM9.04205 0.88147C12.1533 0.88147 14.4374 1.45224 15.8958 2.62268C17.3556 3.76421 18.0856 5.23232 18.0856 6.97208V21.7976C18.0856 22.3973 17.9599 23.0577 17.7386 23.7773C17.5142 24.4998 17.0714 25.1587 16.3729 25.7569C15.7073 26.3594 14.7874 26.8695 13.6132 27.2597C12.439 27.6498 10.9163 27.8593 9.04354 27.8593C7.1738 27.8593 5.6481 27.6498 4.4754 27.2597C3.3027 26.8695 2.3813 26.3594 1.71567 25.7569C1.09646 25.2178 0.627379 24.5371 0.35151 23.7773C0.127142 23.0591 0 22.3987 0 21.7991V19.4293C0 18.1678 0.348519 16.9974 1.04705 15.9758C1.74559 14.9267 2.72832 14.2071 3.99824 13.7563C4.63246 13.5468 5.3624 13.3372 6.18658 13.067C7.01226 12.7954 7.77212 12.5252 8.53497 12.2867C9.29782 12.0454 9.96345 11.8041 10.5333 11.5931C10.8773 11.4602 11.2266 11.3407 11.5804 11.2348L12.1518 10.9646C12.3762 10.8446 12.596 10.664 12.8189 10.4242C13.0403 10.1857 13.2303 9.91552 13.3903 9.61496C13.5594 9.2895 13.6465 8.93005 13.6446 8.5659V7.60499C13.6469 7.25281 13.5704 6.9043 13.4202 6.58338C13.2946 6.22214 13.0403 5.89268 12.6918 5.59357C12.3433 5.29301 11.8661 5.05314 11.2962 4.87107C10.7248 4.69334 9.96495 4.60231 9.10636 4.60231C7.32937 4.60231 6.15517 4.93465 5.52096 5.62247C4.98247 6.22358 4.66537 6.97353 4.60254 7.81306C4.60254 7.99369 4.44399 8.11362 4.25253 8.11362L0.382922 8.17431C0.291003 8.1747 0.202646 8.13999 0.137091 8.07774C0.0715355 8.0155 0.03409 7.93075 0.0329074 7.84196V6.97497C0.0329074 6.13255 0.192957 5.35225 0.541476 4.60231C0.89149 3.85091 1.43147 3.22235 2.15992 2.68048C2.88986 2.1415 3.84268 1.69211 4.98397 1.39155C6.09534 1.0303 7.4595 0.88147 9.04504 0.88147H9.04205Z" fill="#0A3871"/>
</svg>
